<?xml version="1.0" encoding="UTF-8" standalone="no"?>
<!-- Created with Inkscape (http://www.inkscape.org/) -->

<svg
   width="59.294941mm"
   height="17.054153mm"
   viewBox="0 0 59.294941 17.054153"
   version="1.1"
   id="svg5"
   xml:space="preserve"
   xmlns="http://www.w3.org/2000/svg"
   xmlns:svg="http://www.w3.org/2000/svg"><defs
     id="defs2" /><g
     id="layer1"
     transform="translate(-25.499371,-42.016661)"><path
       style="fill:#000000;stroke-width:0.0534722"
       d="m 25.513161,48.516747 -0.01379,-6.500086 0.116762,0.13575 0.116763,0.135751 1.208378,1.445005 1.208378,1.445007 1.711639,2.0452 1.711638,2.045198 0.05222,0.01815 0.05222,0.01815 -0.01435,-2.683614 -0.01435,-2.683613 0.187153,0.209623 0.187152,0.209624 4.732287,5.233324 4.732289,5.233324 0.06987,0.09664 0.06987,0.09664 h -1.194356 -1.194356 l -2.801182,-3.034546 -2.80118,-3.034546 -0.04465,-0.01782 -0.04464,-0.01783 v 3.031022 3.031021 l -1.606916,-1.997226 -1.606916,-1.997225 -1.374157,-1.721502 -1.374158,-1.721502 -0.04082,-0.003 -0.04082,-0.003 0.01408,3.743059 0.01408,3.743059 -1.00218,-6e-6 -1.00218,-7e-6 z"
       id="path467" /><path
       id="text4168"
       style="font-style:normal;font-variant:normal;font-weight:bold;font-stretch:normal;font-size:14.4639px;font-family:'Mukta Mahee';-inkscape-font-specification:'Mukta Mahee, Bold';font-variant-ligatures:normal;font-variant-caps:normal;font-variant-numeric:normal;font-variant-east-asian:normal;font-feature-settings:'salt', 'ss01', 'ss02', 'ss03';letter-spacing:-0.486833px;fill:#000000;fill-opacity:1;stroke-width:0.264583"
       d="m 59.805135,43.90533 v 11.083045 h 2.033468 V 43.90533 Z m 2.694926,1.303797 v 1.676383 h 2.701127 v 8.102865 h 2.126485 V 46.88551 h 2.763139 v -1.676383 z m -16.14165,0.09353 v 2.281515 H 45.21016 v 1.490348 h 1.148251 v 3.771863 c 0,0.71402 0.191761,1.252187 0.574642,1.614371 0.38288,0.351837 1.024143,0.527617 1.92443,0.527617 0.393229,0 0.765925,-0.04124 1.117761,-0.124024 0.351836,-0.08279 0.615765,-0.165778 0.791683,-0.248563 l -0.310575,-1.44384 c -0.134526,0.07244 -0.310306,0.129657 -0.527617,0.171049 -0.21731,0.04139 -0.429691,0.06201 -0.636653,0.06201 -0.269051,0 -0.48607,-0.06186 -0.65164,-0.186035 -0.155222,-0.134526 -0.233061,-0.377835 -0.233061,-0.729671 v -3.414779 h 1.971456 V 47.58417 h -1.971456 v -2.281515 z m -4.666382,2.126485 c -0.558799,0 -1.066037,0.09794 -1.521354,0.294556 -0.455318,0.186266 -0.848117,0.450195 -1.179257,0.791683 -0.320791,0.341488 -0.569256,0.755423 -0.745174,1.241785 -0.06176,0.167105 -0.111852,0.341832 -0.151928,0.522965 0.03277,0.0363 0.06542,0.07273 0.09819,0.109037 0.640299,0.750786 1.320649,1.468895 1.99316,2.193665 -0.08216,-0.203225 -0.123507,-0.436389 -0.123507,-0.699182 v -0.06201 h 4.92063 v -0.915706 c 0,-1.096901 -0.300012,-1.950545 -0.900203,-2.561084 -0.589843,-0.61054 -1.386784,-0.915707 -2.390552,-0.915707 z m 12.686047,0 c -0.517406,0 -0.983406,0.09279 -1.397331,0.279053 -0.403576,0.186266 -0.744827,0.450195 -1.024226,0.791683 -0.2794,0.33114 -0.496935,0.73992 -0.652157,1.226282 -0.144874,0.476013 -0.217041,1.009026 -0.217041,1.598869 0,0.589843 0.08248,1.122855 0.248047,1.598868 0.16557,0.476014 0.38826,0.879639 0.667659,1.210779 0.289748,0.33114 0.625844,0.584759 1.008724,0.760677 0.393229,0.175918 0.807164,0.26355 1.241785,0.26355 0.434621,0 0.827937,-0.07732 1.179773,-0.232544 0.362184,-0.16557 0.657042,-0.414034 0.8847,-0.745174 h 0.04703 c 0.01035,0.155222 0.03097,0.294918 0.06201,0.419096 0.03104,0.113829 0.07228,0.243216 0.124023,0.38809 h 2.017965 c -0.06209,-0.186266 -0.129618,-0.460505 -0.202055,-0.822689 -0.07244,-0.362184 -0.108521,-0.864268 -0.108521,-1.505851 v -5.075659 h -1.893424 l -0.12454,0.512113 C 56.00249,47.889323 55.723097,47.729007 55.402305,47.615177 55.091861,47.491 54.750611,47.429142 54.378078,47.429142 Z m 18.764746,0 c -0.538102,0 -1.040185,0.08763 -1.505851,0.26355 -0.465665,0.175918 -0.874446,0.434692 -1.226282,0.77618 -0.341488,0.33114 -0.610571,0.745075 -0.807186,1.241785 -0.196614,0.486362 -0.294555,1.045148 -0.294555,1.676383 0,0.600191 0.09279,1.138358 0.279052,1.614372 0.196615,0.465666 0.460544,0.858981 0.791683,1.179773 0.341488,0.320792 0.739959,0.564101 1.195276,0.729671 0.465666,0.16557 0.967749,0.248047 1.505852,0.248047 0.538102,0 1.039668,-0.08763 1.505334,-0.26355 0.465666,-0.186266 0.869291,-0.44504 1.210779,-0.77618 0.351836,-0.341488 0.626074,-0.755423 0.822689,-1.241784 0.196614,-0.486362 0.295072,-1.034839 0.295072,-1.645378 0,-0.620887 -0.09846,-1.169364 -0.295072,-1.645378 -0.186267,-0.476013 -0.450195,-0.869329 -0.791683,-1.179773 -0.33114,-0.320791 -0.729094,-0.564101 -1.194759,-0.729671 -0.455318,-0.16557 -0.952246,-0.248047 -1.490349,-0.248047 z m 3.781682,0.15503 3.120223,7.373193 -0.06253,0.201538 c -0.144874,0.548451 -0.41344,1.019605 -0.806669,1.412834 -0.393229,0.393228 -0.879848,0.693241 -1.459342,0.900203 l 0.853694,1.598869 c 0.507058,-0.16557 0.946767,-0.377951 1.3193,-0.636654 0.372532,-0.258703 0.69368,-0.55356 0.962731,-0.8847 0.2794,-0.33114 0.511883,-0.693527 0.698149,-1.086756 0.196614,-0.38288 0.372395,-0.786505 0.527616,-1.210778 l 2.71663,-7.667749 h -2.110982 l -1.148767,3.507796 -0.481107,1.816426 H 80.99144 L 80.494829,51.107988 79.17553,47.584172 Z m -35.30999,1.303796 c 0.227659,0 0.418903,0.04124 0.574125,0.124023 0.155222,0.08279 0.284609,0.196708 0.38809,0.341582 0.103482,0.134525 0.176166,0.294841 0.217558,0.481107 0.05174,0.186266 0.07752,0.378028 0.07752,0.574642 l -2.763139,0.03101 c 0.05174,-0.476014 0.212056,-0.853865 0.481108,-1.133264 0.269051,-0.279399 0.610818,-0.419096 1.024743,-0.419096 z m 13.198161,0.04651 c 0.300096,0 0.569179,0.06753 0.807186,0.202055 0.238007,0.124177 0.429251,0.279338 0.574125,0.465604 v 3.197738 c -0.144874,0.238007 -0.341273,0.439561 -0.589628,0.605131 -0.238007,0.155222 -0.496781,0.233061 -0.77618,0.233061 -0.217311,0 -0.424536,-0.04176 -0.621151,-0.124541 -0.186266,-0.09313 -0.356891,-0.232829 -0.512113,-0.419095 -0.144874,-0.196615 -0.263951,-0.439407 -0.357084,-0.729155 -0.08278,-0.300095 -0.124024,-0.657327 -0.124024,-1.071252 0,-0.413925 0.04124,-0.771157 0.124024,-1.071253 0.09313,-0.300095 0.21221,-0.542888 0.357084,-0.729154 0.144873,-0.196615 0.315499,-0.336311 0.512113,-0.419096 0.196615,-0.09313 0.398686,-0.140043 0.605648,-0.140043 z m 18.283638,0.0155 c 0.217311,0 0.429175,0.04691 0.636137,0.140043 0.206963,0.08279 0.388415,0.217327 0.543636,0.403593 0.155222,0.186266 0.279454,0.429059 0.372588,0.729154 0.09313,0.300096 0.139526,0.662483 0.139526,1.086756 0,0.434621 -0.04639,0.802162 -0.139526,1.102258 -0.09313,0.289747 -0.217366,0.527385 -0.372588,0.713651 -0.155221,0.186267 -0.331518,0.320808 -0.528133,0.403593 -0.196614,0.07244 -0.403323,0.109038 -0.620634,0.109038 -0.21731,0 -0.429691,-0.04691 -0.636653,-0.140043 -0.196615,-0.09313 -0.37755,-0.23283 -0.54312,-0.419096 -0.155221,-0.186267 -0.279454,-0.423904 -0.372587,-0.713652 -0.09313,-0.300095 -0.139526,-0.652173 -0.139526,-1.055749 0,-0.455318 0.04639,-0.833169 0.139526,-1.133265 0.09313,-0.300095 0.217366,-0.537733 0.372587,-0.713651 0.155222,-0.186266 0.331002,-0.315653 0.527617,-0.38809 0.196614,-0.08278 0.40384,-0.12454 0.62115,-0.12454 z m -28.858703,4.26899 c -0.258703,0.113829 -0.548406,0.21177 -0.869198,0.294555 -0.310443,0.08279 -0.672313,0.124541 -1.086238,0.124541 -0.567994,0 -1.045658,-0.110274 -1.432988,-0.330213 0.534276,0.593479 1.04918,1.20259 1.522905,1.844849 0.444657,-0.01601 0.839743,-0.06514 1.182873,-0.148828 0.424273,-0.09313 0.775834,-0.207056 1.055233,-0.341581 z" /></g></svg>
